# xmcd CD database file
#
# Track frame offsets:
#	150
#	28175
#	64680
#	92747
#	131919
#	157334
#	192724
#	204486
#	228063
#	244130
#	271862
#
# Disc length: 3793 seconds
#
# Revision: 0
# Processed by: cddbd v1.5.1PL0 Copyright (c) Steve Scherf et al.
# Submitted via: CDex 1.51
#
DISCID=a00ecf0b
DTITLE=Rolf von Nordenskjoeld Orchestra - Berlin Sketchbook
DYEAR=2005
DGENRE=Jazz
TTITLE0=Fernweh
TTITLE1=55/44
TTITLE2=Pink Lips
TTITLE3=Nights on Schoenhauser
TTITLE4=Rainy Clouds
TTITLE5=Sketchbook
TTITLE6=Song for Barbara
TTITLE7=Mañana
TTITLE8=Ei-risch
TTITLE9=Ballade fuer Helmut
TTITLE10=Bubble Gum
EXTD=YEAR: 2005
EXTT0=
EXTT1=
EXTT2=
EXTT3=
EXTT4=
EXTT5=
EXTT6=
EXTT7=
EXTT8=
EXTT9=
EXTT10=
PLAYORDER=
